<mxfile host="65bd71144e">
    <diagram id="IizSbVGATayDMfFOChP5" name="ページ1">
        <mxGraphModel dx="852" dy="517" grid="1" gridSize="10" guides="1" tooltips="1" connect="1" arrows="1" fold="1" page="1" pageScale="1" pageWidth="1169" pageHeight="827" background="#ffffff" math="0" shadow="0">
            <root>
                <mxCell id="0"/>
                <mxCell id="1" parent="0"/>
                <mxCell id="69" value="" style="rounded=0;whiteSpace=wrap;html=1;strokeColor=none;movable=0;resizable=0;rotatable=0;deletable=0;editable=0;locked=1;connectable=0;" parent="1" vertex="1">
                    <mxGeometry x="80" width="1320" height="440" as="geometry"/>
                </mxCell>
                <mxCell id="46" style="edgeStyle=elbowEdgeStyle;rounded=0;jumpSize=6;html=1;entryX=0.5;entryY=1;entryDx=0;entryDy=0;strokeWidth=3;fontSize=15;fontColor=#4D9900;endArrow=classic;endFill=1;exitX=0.75;exitY=1;exitDx=0;exitDy=0;" parent="1" source="37" target="43" edge="1">
                    <mxGeometry relative="1" as="geometry">
                        <mxPoint x="650" y="420" as="targetPoint"/>
                        <Array as="points">
                            <mxPoint x="970" y="400"/>
                        </Array>
                    </mxGeometry>
                </mxCell>
                <mxCell id="38" value="" style="rounded=1;whiteSpace=wrap;html=1;fontSize=15;fillColor=none;dashed=1;strokeWidth=2;dashPattern=8 8;" parent="1" vertex="1">
                    <mxGeometry x="905" y="300" width="150" height="80" as="geometry"/>
                </mxCell>
                <mxCell id="17" value="" style="rounded=1;whiteSpace=wrap;html=1;fontSize=15;fillColor=none;dashed=1;strokeWidth=2;dashPattern=8 8;" parent="1" vertex="1">
                    <mxGeometry x="900" y="60" width="150" height="80" as="geometry"/>
                </mxCell>
                <mxCell id="4" value="" style="rounded=0;whiteSpace=wrap;html=1;fontSize=20;fillColor=none;dashed=1;movable=0;resizable=0;rotatable=0;deletable=0;editable=0;connectable=0;" parent="1" vertex="1">
                    <mxGeometry x="100" y="60" width="120" height="160" as="geometry"/>
                </mxCell>
                <mxCell id="6" style="edgeStyle=none;html=1;fontSize=20;endArrow=classic;endFill=1;strokeWidth=3;" parent="1" source="2" edge="1">
                    <mxGeometry relative="1" as="geometry">
                        <mxPoint x="280" y="100" as="targetPoint"/>
                    </mxGeometry>
                </mxCell>
                <mxCell id="2" value="&lt;font style=&quot;font-size: 20px;&quot;&gt;開&lt;/font&gt;" style="rounded=0;whiteSpace=wrap;html=1;" parent="1" vertex="1">
                    <mxGeometry x="120" y="80" width="80" height="40" as="geometry"/>
                </mxCell>
                <mxCell id="7" style="edgeStyle=none;html=1;fontSize=20;strokeWidth=3;" parent="1" source="3" edge="1">
                    <mxGeometry relative="1" as="geometry">
                        <mxPoint x="280" y="180" as="targetPoint"/>
                    </mxGeometry>
                </mxCell>
                <mxCell id="3" value="&lt;span style=&quot;font-size: 20px;&quot;&gt;閉&lt;/span&gt;" style="rounded=0;whiteSpace=wrap;html=1;" parent="1" vertex="1">
                    <mxGeometry x="120" y="160" width="80" height="40" as="geometry"/>
                </mxCell>
                <mxCell id="23" style="edgeStyle=elbowEdgeStyle;rounded=0;elbow=vertical;html=1;entryX=0;entryY=0.5;entryDx=0;entryDy=0;strokeWidth=3;fontSize=15;endArrow=classic;endFill=1;" parent="1" source="8" target="21" edge="1">
                    <mxGeometry relative="1" as="geometry"/>
                </mxCell>
                <mxCell id="8" value="" style="verticalLabelPosition=bottom;shadow=0;dashed=0;align=center;html=1;verticalAlign=top;shape=mxgraph.electrical.logic_gates.lowpass_filter;fontSize=20;fillColor=none;" parent="1" vertex="1">
                    <mxGeometry x="280" y="160" width="52" height="40" as="geometry"/>
                </mxCell>
                <mxCell id="22" style="edgeStyle=elbowEdgeStyle;rounded=0;elbow=vertical;html=1;entryX=0;entryY=0.5;entryDx=0;entryDy=0;strokeWidth=3;fontSize=15;endArrow=classic;endFill=1;" parent="1" source="9" target="13" edge="1">
                    <mxGeometry relative="1" as="geometry"/>
                </mxCell>
                <mxCell id="9" value="" style="verticalLabelPosition=bottom;shadow=0;dashed=0;align=center;html=1;verticalAlign=top;shape=mxgraph.electrical.logic_gates.lowpass_filter;fontSize=20;fillColor=none;" parent="1" vertex="1">
                    <mxGeometry x="280" y="80" width="52" height="40" as="geometry"/>
                </mxCell>
                <mxCell id="24" style="edgeStyle=elbowEdgeStyle;rounded=0;elbow=vertical;html=1;entryX=0;entryY=0.5;entryDx=0;entryDy=0;strokeWidth=3;fontSize=15;endArrow=classic;endFill=1;" parent="1" source="13" target="14" edge="1">
                    <mxGeometry relative="1" as="geometry"/>
                </mxCell>
                <mxCell id="13" value="= true" style="rounded=0;whiteSpace=wrap;html=1;fontSize=15;fillColor=default;" parent="1" vertex="1">
                    <mxGeometry x="370" y="80" width="80" height="40" as="geometry"/>
                </mxCell>
                <mxCell id="25" style="edgeStyle=elbowEdgeStyle;rounded=0;elbow=vertical;html=1;entryX=0;entryY=0.5;entryDx=0;entryDy=0;strokeWidth=3;fontSize=15;endArrow=classic;endFill=1;" parent="1" source="14" target="15" edge="1">
                    <mxGeometry relative="1" as="geometry"/>
                </mxCell>
                <mxCell id="14" value="「開」検知" style="rounded=1;whiteSpace=wrap;html=1;fontSize=15;fillColor=default;" parent="1" vertex="1">
                    <mxGeometry x="490" y="80" width="120" height="40" as="geometry"/>
                </mxCell>
                <mxCell id="19" style="edgeStyle=elbowEdgeStyle;html=1;strokeWidth=3;fontSize=15;endArrow=block;endFill=0;rounded=0;elbow=vertical;exitX=1;exitY=0.25;exitDx=0;exitDy=0;entryX=-0.008;entryY=0.316;entryDx=0;entryDy=0;entryPerimeter=0;dashed=1;" parent="1" source="15" target="16" edge="1">
                    <mxGeometry relative="1" as="geometry">
                        <mxPoint x="860" y="88" as="targetPoint"/>
                        <mxPoint x="930" y="84.85714285714283" as="sourcePoint"/>
                    </mxGeometry>
                </mxCell>
                <mxCell id="30" style="edgeStyle=elbowEdgeStyle;rounded=0;elbow=vertical;html=1;strokeWidth=3;fontSize=15;endArrow=classic;endFill=1;entryX=0.5;entryY=0;entryDx=0;entryDy=0;entryPerimeter=0;" parent="1" source="15" target="31" edge="1">
                    <mxGeometry relative="1" as="geometry">
                        <mxPoint x="840" y="190" as="targetPoint"/>
                        <Array as="points">
                            <mxPoint x="730" y="130"/>
                        </Array>
                    </mxGeometry>
                </mxCell>
                <mxCell id="15" value="ローンチモード" style="rounded=1;whiteSpace=wrap;html=1;fontSize=15;" parent="1" vertex="1">
                    <mxGeometry x="650" y="80" width="160" height="40" as="geometry"/>
                </mxCell>
                <mxCell id="45" style="edgeStyle=elbowEdgeStyle;rounded=0;jumpSize=6;html=1;entryX=0.5;entryY=0;entryDx=0;entryDy=0;strokeWidth=3;fontSize=15;fontColor=#4D9900;endArrow=classic;endFill=1;exitX=0.75;exitY=0;exitDx=0;exitDy=0;" parent="1" source="16" target="43" edge="1">
                    <mxGeometry relative="1" as="geometry">
                        <Array as="points">
                            <mxPoint x="970" y="50"/>
                        </Array>
                    </mxGeometry>
                </mxCell>
                <mxCell id="16" value="サーボモータ" style="rounded=0;whiteSpace=wrap;html=1;fontSize=15;fillColor=default;" parent="1" vertex="1">
                    <mxGeometry x="920" y="70" width="120" height="60" as="geometry"/>
                </mxCell>
                <mxCell id="18" value="供給路側" style="text;html=1;align=center;verticalAlign=middle;resizable=0;points=[];autosize=1;strokeColor=none;fillColor=none;fontSize=15;" parent="1" vertex="1">
                    <mxGeometry x="905" y="30" width="80" height="30" as="geometry"/>
                </mxCell>
                <mxCell id="20" value="&lt;font&gt;閉栓&lt;/font&gt;" style="text;html=1;align=center;verticalAlign=middle;resizable=0;points=[];autosize=1;strokeColor=none;fillColor=none;fontSize=15;fontColor=#000000;fontStyle=1" parent="1" vertex="1">
                    <mxGeometry x="850" y="60" width="50" height="30" as="geometry"/>
                </mxCell>
                <mxCell id="27" style="edgeStyle=elbowEdgeStyle;rounded=0;elbow=vertical;html=1;entryX=0;entryY=0.5;entryDx=0;entryDy=0;strokeWidth=3;fontSize=15;endArrow=classic;endFill=1;" parent="1" source="21" target="26" edge="1">
                    <mxGeometry relative="1" as="geometry"/>
                </mxCell>
                <mxCell id="21" value="= true" style="rounded=0;whiteSpace=wrap;html=1;fontSize=15;fillColor=default;" parent="1" vertex="1">
                    <mxGeometry x="370" y="160" width="80" height="40" as="geometry"/>
                </mxCell>
                <mxCell id="29" style="edgeStyle=elbowEdgeStyle;rounded=0;elbow=vertical;html=1;entryX=0;entryY=0.5;entryDx=0;entryDy=0;strokeWidth=3;fontSize=15;endArrow=classic;endFill=1;" parent="1" source="26" target="28" edge="1">
                    <mxGeometry relative="1" as="geometry"/>
                </mxCell>
                <mxCell id="26" value="「閉」検知" style="rounded=1;whiteSpace=wrap;html=1;fontSize=15;fillColor=default;" parent="1" vertex="1">
                    <mxGeometry x="490" y="160" width="120" height="40" as="geometry"/>
                </mxCell>
                <mxCell id="34" style="edgeStyle=elbowEdgeStyle;rounded=0;html=1;strokeWidth=3;fontSize=15;endArrow=classic;endFill=1;entryX=0;entryY=0.75;entryDx=0;entryDy=0;jumpSize=6;" parent="1" target="16" edge="1">
                    <mxGeometry relative="1" as="geometry">
                        <mxPoint x="690" y="150" as="sourcePoint"/>
                        <mxPoint x="840" y="110" as="targetPoint"/>
                        <Array as="points">
                            <mxPoint x="820" y="120"/>
                        </Array>
                    </mxGeometry>
                </mxCell>
                <mxCell id="42" style="edgeStyle=elbowEdgeStyle;rounded=0;jumpSize=6;html=1;entryX=0;entryY=0.75;entryDx=0;entryDy=0;strokeWidth=3;fontSize=15;fontColor=#4D9900;endArrow=block;endFill=0;dashed=1;" parent="1" source="28" target="37" edge="1">
                    <mxGeometry relative="1" as="geometry">
                        <Array as="points">
                            <mxPoint x="690" y="270"/>
                        </Array>
                    </mxGeometry>
                </mxCell>
                <mxCell id="28" value="ウェイティングモード" style="rounded=1;whiteSpace=wrap;html=1;fontSize=15;" parent="1" vertex="1">
                    <mxGeometry x="650" y="160" width="160" height="40" as="geometry"/>
                </mxCell>
                <mxCell id="39" style="edgeStyle=elbowEdgeStyle;rounded=0;jumpSize=6;html=1;strokeWidth=3;fontSize=15;fontColor=#4D9900;endArrow=classic;endFill=1;entryX=0;entryY=0.25;entryDx=0;entryDy=0;" parent="1" source="31" target="37" edge="1">
                    <mxGeometry relative="1" as="geometry">
                        <mxPoint x="840" y="340" as="targetPoint"/>
                        <Array as="points">
                            <mxPoint x="840" y="290"/>
                        </Array>
                    </mxGeometry>
                </mxCell>
                <mxCell id="31" value="" style="points=[[0.25,0.25,0],[0.5,0,0],[0.75,0.25,0],[1,0.5,0],[0.75,0.75,0],[0.5,1,0],[0.25,0.75,0],[0,0.5,0]];shape=mxgraph.bpmn.gateway2;html=1;verticalLabelPosition=bottom;labelBackgroundColor=#ffffff;verticalAlign=top;align=center;perimeter=rhombusPerimeter;outlineConnect=0;outline=standard;symbol=timer;strokeWidth=1;fontSize=15;fillColor=none;" parent="1" vertex="1">
                    <mxGeometry x="810" y="210" width="60" height="60" as="geometry"/>
                </mxCell>
                <mxCell id="32" value="+ 0.2 sec" style="text;html=1;align=center;verticalAlign=middle;resizable=0;points=[];autosize=1;strokeColor=none;fillColor=none;fontSize=15;" parent="1" vertex="1">
                    <mxGeometry x="880" y="210" width="80" height="30" as="geometry"/>
                </mxCell>
                <mxCell id="33" value="供給路閉鎖待機" style="text;html=1;align=center;verticalAlign=middle;resizable=0;points=[];autosize=1;strokeColor=none;fillColor=none;fontSize=15;" parent="1" vertex="1">
                    <mxGeometry x="870" y="240" width="130" height="30" as="geometry"/>
                </mxCell>
                <mxCell id="35" value="" style="endArrow=none;html=1;strokeWidth=3;fontSize=15;jumpSize=6;exitX=0.25;exitY=0;exitDx=0;exitDy=0;rounded=0;" parent="1" source="28" edge="1">
                    <mxGeometry width="50" height="50" relative="1" as="geometry">
                        <mxPoint x="720" y="180" as="sourcePoint"/>
                        <mxPoint x="690" y="150" as="targetPoint"/>
                    </mxGeometry>
                </mxCell>
                <mxCell id="36" value="&lt;font&gt;開栓&lt;/font&gt;" style="text;html=1;align=center;verticalAlign=middle;resizable=0;points=[];autosize=1;strokeColor=none;fillColor=none;fontSize=15;fontColor=#000000;" parent="1" vertex="1">
                    <mxGeometry x="850" y="120" width="50" height="30" as="geometry"/>
                </mxCell>
                <mxCell id="37" value="サーボモータ" style="rounded=0;whiteSpace=wrap;html=1;fontSize=15;fillColor=default;" parent="1" vertex="1">
                    <mxGeometry x="925" y="310" width="120" height="60" as="geometry"/>
                </mxCell>
                <mxCell id="54" style="edgeStyle=elbowEdgeStyle;rounded=0;jumpSize=6;html=1;entryX=0.5;entryY=1;entryDx=0;entryDy=0;strokeWidth=3;fontSize=15;fontColor=#000000;endArrow=classic;endFill=1;" parent="1" source="43" target="53" edge="1">
                    <mxGeometry relative="1" as="geometry">
                        <Array as="points">
                            <mxPoint x="1180" y="190"/>
                        </Array>
                    </mxGeometry>
                </mxCell>
                <mxCell id="43" value="「開栓」/「閉栓」検知" style="rounded=1;whiteSpace=wrap;html=1;fontSize=15;fillColor=default;" parent="1" vertex="1">
                    <mxGeometry x="999" y="200" width="170" height="40" as="geometry"/>
                </mxCell>
                <mxCell id="47" value="&lt;font color=&quot;#000000&quot;&gt;現在角度読み出し&lt;/font&gt;" style="text;html=1;align=center;verticalAlign=middle;resizable=0;points=[];autosize=1;strokeColor=none;fillColor=none;fontSize=15;fontColor=#4D9900;" parent="1" vertex="1">
                    <mxGeometry x="995" y="20" width="140" height="30" as="geometry"/>
                </mxCell>
                <mxCell id="48" value="現在角度読み出し" style="text;html=1;align=center;verticalAlign=middle;resizable=0;points=[];autosize=1;strokeColor=none;fillColor=none;fontSize=15;fontColor=#000000;" parent="1" vertex="1">
                    <mxGeometry x="1005" y="399" width="140" height="30" as="geometry"/>
                </mxCell>
                <mxCell id="49" value="主流路側" style="text;html=1;align=center;verticalAlign=middle;resizable=0;points=[];autosize=1;strokeColor=none;fillColor=none;fontSize=15;" parent="1" vertex="1">
                    <mxGeometry x="915" y="384" width="80" height="30" as="geometry"/>
                </mxCell>
                <mxCell id="50" value="&lt;font&gt;&lt;b&gt;開栓&lt;/b&gt;&lt;/font&gt;" style="text;html=1;align=center;verticalAlign=middle;resizable=0;points=[];autosize=1;strokeColor=none;fillColor=none;fontSize=15;fontColor=#000000;" parent="1" vertex="1">
                    <mxGeometry x="855" y="300" width="50" height="30" as="geometry"/>
                </mxCell>
                <mxCell id="51" value="&lt;font&gt;閉栓&lt;/font&gt;" style="text;html=1;align=center;verticalAlign=middle;resizable=0;points=[];autosize=1;strokeColor=none;fillColor=none;fontSize=15;fontColor=#000000;" parent="1" vertex="1">
                    <mxGeometry x="855" y="354" width="50" height="30" as="geometry"/>
                </mxCell>
                <mxCell id="52" value="GSE" style="text;html=1;align=center;verticalAlign=middle;resizable=0;points=[];autosize=1;strokeColor=none;fillColor=none;fontSize=15;fontColor=#000000;" parent="1" vertex="1">
                    <mxGeometry x="100" y="30" width="60" height="30" as="geometry"/>
                </mxCell>
                <mxCell id="53" value="エラー" style="rounded=0;whiteSpace=wrap;html=1;sketch=0;strokeWidth=1;fontSize=15;fontColor=#000000;fillColor=none;" parent="1" vertex="1">
                    <mxGeometry x="1145" y="120" width="70" height="40" as="geometry"/>
                </mxCell>
                <mxCell id="55" value="" style="endArrow=none;dashed=1;html=1;dashPattern=1 3;strokeWidth=2;rounded=0;fontSize=15;fontColor=#000000;jumpSize=6;" parent="1" edge="1">
                    <mxGeometry width="50" height="50" relative="1" as="geometry">
                        <mxPoint x="260" y="40" as="sourcePoint"/>
                        <mxPoint x="850" y="40" as="targetPoint"/>
                    </mxGeometry>
                </mxCell>
                <mxCell id="57" value="" style="endArrow=none;dashed=1;html=1;dashPattern=1 3;strokeWidth=2;rounded=0;fontSize=15;fontColor=#000000;jumpSize=6;" parent="1" edge="1">
                    <mxGeometry width="50" height="50" relative="1" as="geometry">
                        <mxPoint x="850" y="180" as="sourcePoint"/>
                        <mxPoint x="850" y="40" as="targetPoint"/>
                    </mxGeometry>
                </mxCell>
                <mxCell id="58" value="" style="endArrow=none;dashed=1;html=1;dashPattern=1 3;strokeWidth=2;rounded=0;fontSize=15;fontColor=#000000;jumpSize=6;" parent="1" edge="1">
                    <mxGeometry width="50" height="50" relative="1" as="geometry">
                        <mxPoint x="850" y="180" as="sourcePoint"/>
                        <mxPoint x="1100" y="180" as="targetPoint"/>
                    </mxGeometry>
                </mxCell>
                <mxCell id="59" value="" style="endArrow=none;dashed=1;html=1;dashPattern=1 3;strokeWidth=2;rounded=0;fontSize=15;fontColor=#000000;jumpSize=6;" parent="1" edge="1">
                    <mxGeometry width="50" height="50" relative="1" as="geometry">
                        <mxPoint x="1100" y="100" as="sourcePoint"/>
                        <mxPoint x="1100" y="180" as="targetPoint"/>
                    </mxGeometry>
                </mxCell>
                <mxCell id="60" value="" style="endArrow=none;dashed=1;html=1;dashPattern=1 3;strokeWidth=2;rounded=0;fontSize=15;fontColor=#000000;jumpSize=6;" parent="1" edge="1">
                    <mxGeometry width="50" height="50" relative="1" as="geometry">
                        <mxPoint x="1100" y="100" as="sourcePoint"/>
                        <mxPoint x="1350" y="100" as="targetPoint"/>
                    </mxGeometry>
                </mxCell>
                <mxCell id="61" value="" style="endArrow=none;dashed=1;html=1;dashPattern=1 3;strokeWidth=2;rounded=0;fontSize=15;fontColor=#000000;jumpSize=6;" parent="1" edge="1">
                    <mxGeometry width="50" height="50" relative="1" as="geometry">
                        <mxPoint x="1350" y="280" as="sourcePoint"/>
                        <mxPoint x="1350" y="100" as="targetPoint"/>
                    </mxGeometry>
                </mxCell>
                <mxCell id="62" value="" style="endArrow=none;dashed=1;html=1;dashPattern=1 3;strokeWidth=2;rounded=0;fontSize=15;fontColor=#000000;jumpSize=6;" parent="1" edge="1">
                    <mxGeometry width="50" height="50" relative="1" as="geometry">
                        <mxPoint x="850" y="280" as="sourcePoint"/>
                        <mxPoint x="1350" y="280" as="targetPoint"/>
                    </mxGeometry>
                </mxCell>
                <mxCell id="63" value="" style="endArrow=none;dashed=1;html=1;dashPattern=1 3;strokeWidth=2;rounded=0;fontSize=15;fontColor=#000000;jumpSize=6;" parent="1" edge="1">
                    <mxGeometry width="50" height="50" relative="1" as="geometry">
                        <mxPoint x="850" y="280" as="sourcePoint"/>
                        <mxPoint x="850" y="380" as="targetPoint"/>
                    </mxGeometry>
                </mxCell>
                <mxCell id="64" value="" style="endArrow=none;dashed=1;html=1;dashPattern=1 3;strokeWidth=2;rounded=0;fontSize=15;fontColor=#000000;jumpSize=6;" parent="1" edge="1">
                    <mxGeometry width="50" height="50" relative="1" as="geometry">
                        <mxPoint x="640" y="380" as="sourcePoint"/>
                        <mxPoint x="850" y="380" as="targetPoint"/>
                    </mxGeometry>
                </mxCell>
                <mxCell id="65" value="" style="endArrow=none;dashed=1;html=1;dashPattern=1 3;strokeWidth=2;rounded=0;fontSize=15;fontColor=#000000;jumpSize=6;" parent="1" edge="1">
                    <mxGeometry width="50" height="50" relative="1" as="geometry">
                        <mxPoint x="260" y="240" as="sourcePoint"/>
                        <mxPoint x="260" y="40" as="targetPoint"/>
                    </mxGeometry>
                </mxCell>
                <mxCell id="66" value="" style="endArrow=none;dashed=1;html=1;dashPattern=1 3;strokeWidth=2;rounded=0;fontSize=15;fontColor=#000000;jumpSize=6;" parent="1" edge="1">
                    <mxGeometry width="50" height="50" relative="1" as="geometry">
                        <mxPoint x="640" y="380" as="sourcePoint"/>
                        <mxPoint x="640" y="240" as="targetPoint"/>
                    </mxGeometry>
                </mxCell>
                <mxCell id="67" value="" style="endArrow=none;dashed=1;html=1;dashPattern=1 3;strokeWidth=2;rounded=0;fontSize=15;fontColor=#000000;jumpSize=6;" parent="1" edge="1">
                    <mxGeometry width="50" height="50" relative="1" as="geometry">
                        <mxPoint x="260" y="240" as="sourcePoint"/>
                        <mxPoint x="640" y="240" as="targetPoint"/>
                    </mxGeometry>
                </mxCell>
                <mxCell id="68" value="マイコンユニット" style="text;html=1;align=center;verticalAlign=middle;resizable=0;points=[];autosize=1;strokeColor=none;fillColor=none;fontSize=15;fontColor=#000000;" parent="1" vertex="1">
                    <mxGeometry x="260" y="10" width="140" height="30" as="geometry"/>
                </mxCell>
                <mxCell id="71" value="&lt;div&gt;&lt;font style=&quot;font-size: 16px;&quot;&gt;他サブシステムへ&lt;/font&gt;&lt;/div&gt;&lt;font style=&quot;font-size: 16px;&quot;&gt;データ送信&lt;/font&gt;" style="text;html=1;align=center;verticalAlign=middle;resizable=0;points=[];autosize=1;strokeColor=none;fillColor=none;" vertex="1" parent="1">
                    <mxGeometry x="1190" y="180" width="150" height="50" as="geometry"/>
                </mxCell>
            </root>
        </mxGraphModel>
    </diagram>
</mxfile>